<?xml version="1.0" encoding="UTF-8"?>
<svg xmlns="http://www.w3.org/2000/svg" id="Layer_1" viewBox="0 0 504.71 421.93">
  <defs>
    <style>.cls-1{fill:#fff;}</style>
  </defs>
  <polygon class="cls-1" points="109.22 62.23 87.25 62.23 77.87 62.23 77.87 38.97 87.25 38.97 109.22 38.97 126.31 38.97 126.31 62.23 109.22 62.23"></polygon>
  <polygon class="cls-1" points="99.7 58.35 99.7 136.85 77.73 136.85 77.73 58.35 77.73 36.78 77.73 .09 99.7 .09 99.7 36.78 99.7 58.35"></polygon>
  <path class="cls-1" d="m156.51,0v46.65c7.81-7.03,16.44-10.55,25.88-10.55,10.74,0,19.34,3.48,25.78,10.45,5.47,6.05,8.2,15.72,8.2,29v58.3h-21.97v-56.25c0-7.62-1.35-13.13-4.05-16.55-2.7-3.42-7.05-5.13-13.04-5.13-7.68,0-13.09,2.38-16.21,7.13-3.06,4.82-4.59,13.09-4.59,24.8v46h-21.97V0h21.97Z"></path>
  <path class="cls-1" d="m315.63,91.47h-68.16c.59,7.81,3.12,14.03,7.62,18.65,4.49,4.56,10.25,6.84,17.29,6.84,5.47,0,9.99-1.3,13.57-3.91,3.52-2.6,7.52-7.42,12.01-14.45l18.55,10.35c-2.87,4.88-5.89,9.07-9.08,12.55-3.19,3.48-6.61,6.35-10.25,8.59s-7.58,3.89-11.82,4.93c-4.23,1.04-8.82,1.56-13.77,1.56-14.19,0-25.59-4.56-34.18-13.67-8.59-9.18-12.89-21.35-12.89-36.52s4.17-27.21,12.5-36.52c8.4-9.18,19.53-13.77,33.4-13.77s25.06,4.46,33.2,13.38c8.07,8.85,12.11,21.13,12.11,36.82l-.1,5.18Zm-22.56-17.97c-3.06-11.72-10.45-17.58-22.17-17.58-2.67,0-5.18.41-7.52,1.22-2.34.81-4.48,1.99-6.4,3.52-1.92,1.53-3.56,3.37-4.93,5.52s-2.41,4.59-3.12,7.32h44.14Z"></path>
  <path class="cls-1" d="m49.56,235.61c0-13.74,4.92-25.42,14.75-35.06,9.83-9.63,21.81-14.45,35.94-14.45s26.24,4.85,36.13,14.55c9.77,9.7,14.65,21.62,14.65,35.74s-4.92,26.21-14.75,35.84c-9.9,9.57-22.04,14.36-36.43,14.36s-26.21-4.88-35.84-14.65c-9.64-9.63-14.45-21.74-14.45-36.33Zm22.46.39c0,9.51,2.54,17.03,7.62,22.56,5.21,5.6,12.08,8.4,20.61,8.4s15.46-2.77,20.61-8.3c5.14-5.53,7.71-12.92,7.71-22.17s-2.57-16.63-7.71-22.17c-5.21-5.6-12.08-8.4-20.61-8.4s-15.2,2.8-20.41,8.4c-5.21,5.6-7.81,12.83-7.81,21.68Z"></path>
  <path class="cls-1" d="m159.06,188.74h22.07v8.79c7.68-7.62,16.34-11.43,25.98-11.43,11.07,0,19.69,3.48,25.88,10.45,5.34,5.92,8.01,15.59,8.01,29v58.3h-22.07v-53.12c0-9.38-1.3-15.85-3.91-19.43-2.54-3.65-7.16-5.47-13.87-5.47-7.29,0-12.47,2.41-15.53,7.23-3,4.75-4.49,13.05-4.49,24.9v45.9h-22.07v-95.12Z"></path>
  <path class="cls-1" d="m275.5,149.33v134.52h-21.97v-134.52h21.97Z"></path>
  <path class="cls-1" d="m284.81,168.19c0-3.84,1.4-7.16,4.2-9.96,2.8-2.8,6.15-4.2,10.06-4.2s7.36,1.4,10.16,4.2c2.8,2.73,4.2,6.09,4.2,10.06s-1.4,7.36-4.2,10.16c-2.73,2.8-6.09,4.2-10.06,4.2s-7.36-1.4-10.16-4.2c-2.8-2.8-4.2-6.22-4.2-10.25Zm25.29,20.55v95.12h-21.97v-95.12h21.97Z"></path>
  <path class="cls-1" d="m322.74,188.74h22.07v8.79c7.68-7.62,16.34-11.43,25.98-11.43,11.07,0,19.69,3.48,25.88,10.45,5.34,5.92,8.01,15.59,8.01,29v58.3h-22.07v-53.12c0-9.38-1.3-15.85-3.91-19.43-2.54-3.65-7.16-5.47-13.87-5.47-7.29,0-12.47,2.41-15.53,7.23-3,4.75-4.49,13.05-4.49,24.9v45.9h-22.07v-95.12Z"></path>
  <path class="cls-1" d="m503.83,241.47h-68.16c.59,7.81,3.12,14.03,7.62,18.65,4.49,4.56,10.25,6.84,17.29,6.84,5.47,0,9.99-1.3,13.57-3.91,3.52-2.6,7.52-7.42,12.01-14.45l18.55,10.35c-2.87,4.88-5.89,9.07-9.08,12.55-3.19,3.48-6.61,6.35-10.25,8.59-3.65,2.25-7.58,3.89-11.82,4.93-4.23,1.04-8.82,1.56-13.77,1.56-14.19,0-25.59-4.56-34.18-13.67-8.59-9.18-12.89-21.35-12.89-36.52s4.17-27.21,12.5-36.52c8.4-9.18,19.53-13.77,33.4-13.77s25.06,4.46,33.2,13.38c8.07,8.85,12.11,21.13,12.11,36.82l-.1,5.18Zm-22.56-17.97c-3.06-11.72-10.45-17.58-22.17-17.58-2.67,0-5.18.41-7.52,1.22-2.34.81-4.48,1.99-6.4,3.52-1.92,1.53-3.56,3.37-4.93,5.52s-2.41,4.59-3.12,7.32h44.14Z"></path>
  <path class="cls-1" d="m128.07,327.84v29.2c-5.01-6.12-9.51-10.32-13.48-12.6-3.91-2.34-8.5-3.52-13.77-3.52-8.27,0-15.14,2.9-20.61,8.69-5.47,5.79-8.2,13.05-8.2,21.78s2.64,16.24,7.91,21.97c5.34,5.73,12.14,8.59,20.41,8.59,5.27,0,9.93-1.14,13.96-3.42,3.91-2.21,8.5-6.51,13.77-12.89v29c-8.92,4.62-17.84,6.93-26.76,6.93-14.71,0-27.02-4.75-36.91-14.26-9.9-9.57-14.84-21.45-14.84-35.64s5.01-26.17,15.04-35.94c10.02-9.77,22.33-14.65,36.91-14.65,9.38,0,18.23,2.25,26.56,6.74Z"></path>
  <path class="cls-1" d="m135.67,358.81c0-8.08,2.89-14.95,8.67-20.61,5.78-5.66,12.82-8.5,21.13-8.5s15.42,2.85,21.24,8.55c5.74,5.7,8.61,12.71,8.61,21.01s-2.89,15.41-8.67,21.07c-5.82,5.63-12.96,8.44-21.41,8.44s-15.41-2.87-21.07-8.61c-5.66-5.66-8.5-12.78-8.5-21.36Zm13.2.23c0,5.59,1.49,10.01,4.48,13.26,3.06,3.29,7.1,4.94,12.11,4.94s9.09-1.63,12.11-4.88c3.02-3.25,4.54-7.6,4.54-13.03s-1.51-9.78-4.54-13.03c-3.06-3.29-7.1-4.94-12.11-4.94s-8.94,1.65-12,4.94c-3.06,3.29-4.59,7.54-4.59,12.75Z"></path>
  <path class="cls-1" d="m196.59,407.92c0-3.65,1.33-6.8,4-9.47,2.67-2.67,5.86-4,9.57-4s6.9,1.33,9.57,4c2.67,2.67,4,5.86,4,9.57s-1.33,7-4,9.67c-2.6,2.6-5.79,3.91-9.57,3.91s-7.06-1.3-9.67-3.91c-2.6-2.6-3.91-5.86-3.91-9.77Z"></path>
  <path class="cls-1" d="m51.17,50.34c0-3.07,1.12-5.74,3.38-7.99,2.25-2.25,4.94-3.38,8.07-3.38s5.82,1.13,8.07,3.38c2.25,2.25,3.38,4.94,3.38,8.07s-1.12,5.9-3.38,8.15c-2.2,2.2-4.89,3.29-8.07,3.29s-5.96-1.1-8.15-3.29c-2.2-2.2-3.29-4.94-3.29-8.23Z"></path>
  <path class="cls-1" d="m177.7,421.93v-.41c0-10.2-4.02-15.29-12.07-15.29s-12.07,5.1-12.07,15.29v.41h-14.22v-.72c0-4.93.61-9.18,1.83-12.77,1.18-3.2,3.22-6.09,6.13-8.66,4.8-4.17,10.91-6.26,18.33-6.26s13.46,2.09,18.26,6.26c2.95,2.57,5.03,5.46,6.26,8.66,1.18,2.86,1.77,7.12,1.77,12.77v.72h-14.22Z"></path>
  <path class="cls-1" d="m21.97.09v421.49H0V.09h21.97Z"></path>
</svg>
